<svg width="32" height="32" viewBox="0 0 32 32" fill="none" xmlns="http://www.w3.org/2000/svg">
<path fill-rule="evenodd" clip-rule="evenodd" d="M23.5974 8.40263L22.7534 4.77596L18.9147 5.11729L16.0054 2.66663L13.1054 5.11729L9.25741 4.77596L8.40275 8.40263L4.77608 9.24663L5.11741 13.0853L2.66675 15.9946L5.11741 18.8946L4.77608 22.7426L8.40275 23.5973L9.24675 27.224L13.0854 26.8826L15.9947 29.3333L18.8947 26.8826L22.7427 27.224L23.5974 23.5973L27.2241 22.7533L26.8827 18.9146L29.3334 16.0053L26.8827 13.1053L27.2241 9.25729L23.5974 8.40263Z" stroke="white" stroke-width="1.5" stroke-linecap="round" stroke-linejoin="round"/>
<path d="M12 20L20 12" stroke="white" stroke-width="1.5" stroke-linecap="round" stroke-linejoin="round"/>
<path d="M12.3321 12C12.1481 12 11.9988 12.1493 12.0001 12.3333C12.0001 12.5173 12.1494 12.6666 12.3334 12.6666C12.5174 12.6666 12.6668 12.5173 12.6668 12.3333C12.6668 12.1493 12.5174 12 12.3321 12" stroke="white" stroke-width="1.5" stroke-linecap="round" stroke-linejoin="round"/>
<path d="M19.6653 19.3333C19.4813 19.3333 19.332 19.4827 19.3333 19.6667C19.3333 19.8507 19.4827 20 19.6667 20C19.8507 20 20 19.8507 20 19.6667C20 19.4827 19.8507 19.3333 19.6653 19.3333" stroke="white" stroke-width="1.5" stroke-linecap="round" stroke-linejoin="round"/>
</svg>
