<svg width="32" height="32" viewBox="0 0 32 32" fill="none" xmlns="http://www.w3.org/2000/svg">
<g clip-path="url(#clip0_5344_1206)">
<path d="M29.3333 0.533447H6.93333C5.4612 0.53527 4.26849 1.72798 4.26667 3.20011V24.0001H0.533333C0.238802 24.0001 0 24.2389 0 24.5334V25.6001C0.00182292 27.0722 1.19453 28.265 2.66667 28.2668H19.2128V30.9334C19.2128 31.1355 19.3268 31.3202 19.5076 31.4105C19.6883 31.5009 19.9044 31.4814 20.0661 31.36L21.8794 30.0001L23.6927 31.36C23.7849 31.4295 23.8974 31.467 24.0128 31.4668C24.0956 31.4676 24.1773 31.4493 24.2518 31.4134C24.4333 31.3225 24.5474 31.1363 24.5461 30.9334V28.2668H25.0667C26.5388 28.265 27.7315 27.0722 27.7333 25.6001V4.80011H31.4667C31.7612 4.80011 32 4.56131 32 4.26678V3.20011C31.9982 1.72798 30.8055 0.53527 29.3333 0.533447ZM19.2128 27.2001H2.66667C1.78307 27.2001 1.06667 26.4837 1.06667 25.6001V25.0668H19.2128V27.2001ZM23.4794 29.8668L22.1995 28.9069C22.0099 28.7644 21.7492 28.7644 21.5594 28.9069L20.2794 29.8668V23.91C20.3826 23.9181 20.4862 23.9163 20.5888 23.904C20.8966 24.3012 21.3708 24.5334 21.8732 24.5334C22.3755 24.5334 22.8495 24.3012 23.1573 23.904C23.2635 23.9168 23.3708 23.9189 23.4773 23.91L23.4794 29.8668ZM24.1654 21.3228C24.0232 21.3733 23.9089 21.4819 23.8513 21.6212C23.7935 21.7608 23.7974 21.9181 23.8625 22.0545C23.9633 22.266 23.9206 22.5181 23.7555 22.6842C23.5901 22.8504 23.3383 22.8946 23.1263 22.7949C22.9901 22.7298 22.8326 22.7256 22.693 22.7832C22.5531 22.841 22.4448 22.9553 22.394 23.0978C22.3161 23.3186 22.1073 23.4665 21.8732 23.4665C21.6388 23.4665 21.4299 23.3186 21.3521 23.0978C21.3016 22.9553 21.193 22.841 21.0534 22.7832C20.9135 22.7256 20.756 22.7298 20.6198 22.7949C20.4078 22.8946 20.156 22.8504 19.9909 22.6842C19.8255 22.5181 19.7828 22.266 19.8839 22.0545C19.9487 21.9183 19.9529 21.7608 19.8951 21.6215C19.8375 21.4819 19.7234 21.3736 19.5813 21.3228C19.3602 21.2441 19.2122 21.0347 19.2122 20.8001C19.2122 20.5655 19.3602 20.3561 19.5813 20.2775C19.7234 20.2267 19.8372 20.1183 19.8948 19.979C19.9526 19.8397 19.9484 19.6824 19.8839 19.5462C19.7823 19.3347 19.825 19.0824 19.9904 18.916C20.1555 18.7499 20.4076 18.7053 20.6198 18.8053C20.756 18.8704 20.9135 18.8746 21.0534 18.817C21.193 18.7592 21.3016 18.6449 21.3521 18.5025C21.4299 18.2816 21.6388 18.1337 21.8732 18.1337C22.1073 18.1337 22.3161 18.2816 22.394 18.5025C22.4448 18.6449 22.5531 18.7592 22.693 18.817C22.8326 18.8746 22.9901 18.8704 23.1263 18.8053C23.3383 18.7056 23.5901 18.7499 23.7555 18.916C23.9206 19.0821 23.9633 19.3342 23.8625 19.5457C23.7974 19.6821 23.7935 19.8394 23.8513 19.979C23.9089 20.1183 24.0232 20.2269 24.1654 20.2775C24.3859 20.3566 24.5333 20.5657 24.5333 20.8001C24.5333 21.0345 24.3859 21.2436 24.1654 21.3228ZM27.1589 1.66678C27.1286 1.70949 27.1018 1.7548 27.0742 1.79959C27.0172 1.89074 26.9661 1.98501 26.9206 2.08215C26.8966 2.13553 26.8742 2.18475 26.8534 2.23683C26.8138 2.34152 26.7805 2.44829 26.7542 2.55688C26.7419 2.60662 26.7263 2.65454 26.7169 2.70506C26.6846 2.86834 26.668 3.03397 26.6667 3.20011V25.6001C26.6667 26.4837 25.9503 27.2001 25.0667 27.2001C24.8888 27.1967 24.713 27.1637 24.5461 27.1019V23.392C24.8779 23.0431 25.0344 22.5631 24.9729 22.0855C25.3693 21.7769 25.601 21.3025 25.601 20.8001C25.601 20.2978 25.3693 19.8233 24.9729 19.5147C25.0359 19.0168 24.8654 18.5176 24.5109 18.1618C24.1565 17.8064 23.6578 17.6345 23.1594 17.6962C22.8516 17.2991 22.3776 17.0668 21.8753 17.0668C21.3729 17.0668 20.8987 17.2991 20.5909 17.6962C20.0927 17.6347 19.594 17.8066 19.2396 18.1621C18.8854 18.5176 18.7148 19.0168 18.7776 19.5147C18.3813 19.8233 18.1492 20.2978 18.1492 20.8001C18.1492 21.3025 18.3813 21.7769 18.7776 22.0855C18.7146 22.5699 18.876 23.0566 19.2159 23.4077V24.0001H5.33333V3.20011C5.33333 2.31652 6.04974 1.60011 6.93333 1.60011H27.2C27.1852 1.62095 27.174 1.64491 27.1589 1.66678ZM30.9333 3.73345H27.7333V3.20011C27.7333 2.31652 28.4497 1.60011 29.3333 1.60011C30.2169 1.60011 30.9333 2.31652 30.9333 3.20011V3.73345Z" fill="black"/>
<path d="M17.6 4.80005H19.7333V5.86672H17.6V4.80005Z" fill="black"/>
<path d="M12.2667 4.80005H16.5333V5.86672H12.2667V4.80005Z" fill="black"/>
<path d="M10.6667 7.46655H21.3334V8.53322H10.6667V7.46655Z" fill="black"/>
<path d="M8 10.6667H10.6667V11.7334H8V10.6667Z" fill="black"/>
<path d="M8 13.3333H13.8667V14.3999H8V13.3333Z" fill="black"/>
<path d="M11.7333 10.6667H24V11.7334H11.7333V10.6667Z" fill="black"/>
<path d="M14.9333 13.3333H24V14.3999H14.9333V13.3333Z" fill="black"/>
<path d="M8 16H18.6667V17.0667H8V16Z" fill="black"/>
<path d="M8 18.6667H17.0667V19.7334H8V18.6667Z" fill="black"/>
</g>
<defs>
<clipPath id="clip0_5344_1206">
<rect width="32" height="32" fill="white"/>
</clipPath>
</defs>
</svg>
