<svg width="32" height="32" viewBox="0 0 32 32" fill="none" xmlns="http://www.w3.org/2000/svg">
<path d="M28.8001 17.3494H25.9574H23.1147H20.2667H17.4241H14.5814H11.7334H8.89075H6.04808H3.20008C2.90675 17.3494 2.66675 17.5894 2.66675 17.8827V28.5494C2.66675 28.8427 2.90675 29.0827 3.20008 29.0827H28.8001C29.0934 29.0827 29.3334 28.8427 29.3334 28.5494V17.8827C29.3334 17.5894 29.0934 17.3494 28.8001 17.3494ZM25.4241 18.416V22.6827H23.6481V18.416H25.4241ZM8.89075 23.7494C9.18408 23.7494 9.42408 23.5094 9.42408 23.216V18.416H11.2001V23.216C11.2001 23.5094 11.4401 23.7494 11.7334 23.7494H12.6241V28.016H8.00008V23.7494H8.89075ZM13.6907 23.7494H14.5814C14.8747 23.7494 15.1147 23.5094 15.1147 23.216V18.416H16.8907V23.216C16.8907 23.5094 17.1307 23.7494 17.4241 23.7494H18.3147V28.016H13.6907V23.7494ZM19.3761 23.7494H20.2667C20.5601 23.7494 20.8001 23.5094 20.8001 23.216V18.416H22.5761V23.216C22.5761 23.5094 22.8161 23.7494 23.1094 23.7494H24.0001V28.016H19.3761V23.7494ZM19.7334 18.416V22.6827H17.9574V18.416H19.7334ZM14.0427 18.416V22.6827H12.2667V18.416H14.0427ZM8.35741 18.416V22.6827H6.58141V18.416H8.35741ZM3.73341 18.416H5.50941V23.216C5.50941 23.5094 5.74941 23.7494 6.04275 23.7494H6.93341V28.016H3.73341V18.416ZM28.2667 28.016H25.0667V23.7494H25.9574C26.2507 23.7494 26.4907 23.5094 26.4907 23.216V18.416H28.2667V28.016Z" fill="white"/>
<path d="M23.3014 11.568C23.5734 11.6854 23.8881 11.5574 24.0001 11.2854C24.3787 10.3947 24.3947 9.5307 24.0481 8.7147C23.3067 6.96003 21.1254 6.10137 21.0347 6.06937C20.8694 6.00537 20.6881 6.0267 20.5387 6.12803C20.3894 6.22937 20.3094 6.3947 20.3094 6.56537V12.544C19.9201 12.3467 19.4507 12.2294 18.9334 12.2294C17.5627 12.2294 16.4907 13.0507 16.4907 14.096C16.4907 15.1414 17.5627 15.9627 18.9334 15.9627C20.3041 15.9627 21.3761 15.1414 21.3761 14.096V7.42937C21.9574 7.7707 22.7361 8.3467 23.0667 9.13603C23.2961 9.68003 23.2801 10.2507 23.0187 10.8694C22.9014 11.136 23.0294 11.4507 23.3014 11.568ZM18.9334 14.8907C18.1227 14.8907 17.5574 14.4694 17.5574 14.0907C17.5574 13.712 18.1227 13.2907 18.9334 13.2907C19.7441 13.2907 20.3094 13.712 20.3094 14.0907C20.3094 14.4694 19.7441 14.8907 18.9334 14.8907Z" fill="white"/>
<path d="M18.7895 9.46669V3.45069C18.7895 3.15736 18.5495 2.91736 18.2561 2.91736C17.9628 2.91736 17.7228 3.15736 17.7228 3.45069V8.06936C17.4295 7.94669 17.0935 7.86669 16.7308 7.86669C15.5788 7.86669 14.6721 8.57069 14.6721 9.46669C14.6721 10.3627 15.5788 11.0667 16.7308 11.0667C17.8828 11.0667 18.7895 10.3627 18.7895 9.46669ZM16.7308 10C16.1708 10 15.7388 9.71203 15.7388 9.46669C15.7388 9.22136 16.1708 8.93336 16.7308 8.93336C17.2908 8.93336 17.7228 9.22136 17.7228 9.46669C17.7228 9.71203 17.2908 10 16.7308 10Z" fill="white"/>
</svg>
