<svg width="32" height="32" viewBox="0 0 32 32" fill="none" xmlns="http://www.w3.org/2000/svg">
<path d="M28.0001 20C28.0001 23.6813 25.0147 26.6667 21.3334 26.6667H18.6667" stroke="white" stroke-width="1.5" stroke-linecap="round" stroke-linejoin="round"/>
<path d="M20.6667 24.6666L18.6667 26.6666L20.6667 28.6666" stroke="white" stroke-width="1.5" stroke-linecap="round" stroke-linejoin="round"/>
<path d="M4 12C4 8.31871 6.98533 5.33337 10.6667 5.33337H13.3333" stroke="white" stroke-width="1.5" stroke-linecap="round" stroke-linejoin="round"/>
<path d="M11.3333 7.33337L13.3333 5.33337L11.3333 3.33337" stroke="white" stroke-width="1.5" stroke-linecap="round" stroke-linejoin="round"/>
<path d="M21.076 10.924C21.2693 11.1173 21.2693 11.4306 21.076 11.624C20.8827 11.8173 20.5693 11.8173 20.376 11.624C20.1827 11.4306 20.1827 11.1173 20.376 10.924C20.5707 10.7306 20.8827 10.7306 21.076 10.924" stroke="white" stroke-width="1.5" stroke-linecap="round" stroke-linejoin="round"/>
<path fill-rule="evenodd" clip-rule="evenodd" d="M19.0267 6.66663H22.6667C24.1401 6.66663 25.3334 7.85996 25.3334 9.33329V12.9733C25.3334 13.68 25.0521 14.3586 24.5521 14.8586L14.6987 24.712C13.8721 25.5386 12.5307 25.5386 11.7041 24.712L7.28675 20.2946C6.46008 19.468 6.46008 18.1266 7.28675 17.3L17.1401 7.44663C17.6401 6.94796 18.3187 6.66663 19.0267 6.66663Z" stroke="white" stroke-width="1.5" stroke-linecap="round" stroke-linejoin="round"/>
</svg>
