<svg width="32" height="32" viewBox="0 0 32 32" fill="none" xmlns="http://www.w3.org/2000/svg">
<path d="M28.8 17.3494H25.9573H23.1146H20.2666H17.424H14.5813H11.7333H8.89063H6.04796H3.19996C2.90663 17.3494 2.66663 17.5894 2.66663 17.8827V28.5494C2.66663 28.8427 2.90663 29.0827 3.19996 29.0827H28.8C29.0933 29.0827 29.3333 28.8427 29.3333 28.5494V17.8827C29.3333 17.5894 29.0933 17.3494 28.8 17.3494ZM25.424 18.416V22.6827H23.648V18.416H25.424ZM8.89063 23.7494C9.18396 23.7494 9.42396 23.5094 9.42396 23.216V18.416H11.2V23.216C11.2 23.5094 11.44 23.7494 11.7333 23.7494H12.624V28.016H7.99996V23.7494H8.89063ZM13.6906 23.7494H14.5813C14.8746 23.7494 15.1146 23.5094 15.1146 23.216V18.416H16.8906V23.216C16.8906 23.5094 17.1306 23.7494 17.424 23.7494H18.3146V28.016H13.6906V23.7494ZM19.376 23.7494H20.2666C20.56 23.7494 20.8 23.5094 20.8 23.216V18.416H22.576V23.216C22.576 23.5094 22.816 23.7494 23.1093 23.7494H24V28.016H19.376V23.7494ZM19.7333 18.416V22.6827H17.9573V18.416H19.7333ZM14.0426 18.416V22.6827H12.2666V18.416H14.0426ZM8.35729 18.416V22.6827H6.58129V18.416H8.35729ZM3.73329 18.416H5.50929V23.216C5.50929 23.5094 5.74929 23.7494 6.04263 23.7494H6.93329V28.016H3.73329V18.416ZM28.2666 28.016H25.0666V23.7494H25.9573C26.2506 23.7494 26.4906 23.5094 26.4906 23.216V18.416H28.2666V28.016Z" fill="black"/>
<path d="M23.3014 11.5679C23.5734 11.6852 23.8881 11.5572 24.0001 11.2852C24.3787 10.3946 24.3947 9.53058 24.0481 8.71458C23.3067 6.95991 21.1254 6.10125 21.0347 6.06925C20.8694 6.00525 20.6881 6.02658 20.5387 6.12791C20.3894 6.22925 20.3094 6.39458 20.3094 6.56525V12.5439C19.9201 12.3466 19.4507 12.2292 18.9334 12.2292C17.5627 12.2292 16.4907 13.0506 16.4907 14.0959C16.4907 15.1412 17.5627 15.9626 18.9334 15.9626C20.3041 15.9626 21.3761 15.1412 21.3761 14.0959V7.42925C21.9574 7.77058 22.7361 8.34658 23.0667 9.13591C23.2961 9.67991 23.2801 10.2506 23.0187 10.8692C22.9014 11.1359 23.0294 11.4506 23.3014 11.5679ZM18.9334 14.8906C18.1227 14.8906 17.5574 14.4692 17.5574 14.0906C17.5574 13.7119 18.1227 13.2906 18.9334 13.2906C19.7441 13.2906 20.3094 13.7119 20.3094 14.0906C20.3094 14.4692 19.7441 14.8906 18.9334 14.8906Z" fill="black"/>
<path d="M18.7893 9.46657V3.45057C18.7893 3.15724 18.5493 2.91724 18.256 2.91724C17.9627 2.91724 17.7227 3.15724 17.7227 3.45057V8.06924C17.4293 7.94657 17.0933 7.86657 16.7307 7.86657C15.5787 7.86657 14.672 8.57057 14.672 9.46657C14.672 10.3626 15.5787 11.0666 16.7307 11.0666C17.8827 11.0666 18.7893 10.3626 18.7893 9.46657ZM16.7307 9.9999C16.1707 9.9999 15.7387 9.7119 15.7387 9.46657C15.7387 9.22124 16.1707 8.93324 16.7307 8.93324C17.2907 8.93324 17.7227 9.22124 17.7227 9.46657C17.7227 9.7119 17.2907 9.9999 16.7307 9.9999Z" fill="black"/>
</svg>
