<svg width="32" height="32" viewBox="0 0 32 32" fill="none" xmlns="http://www.w3.org/2000/svg">
<path d="M25.5 14.685V4.5C25.5 4.36739 25.4473 4.24021 25.3536 4.14645C25.2598 4.05268 25.1326 4 25 4H3C2.86739 4 2.74021 4.05268 2.64645 4.14645C2.55268 4.24021 2.5 4.36739 2.5 4.5V24.5C2.5 24.6326 2.55268 24.7598 2.64645 24.8536C2.74021 24.9473 2.86739 25 3 25H16.765C17.3759 25.8842 18.1823 26.6159 19.1215 27.1383C20.0607 27.6607 21.1076 27.9598 22.1811 28.0125C23.2545 28.0652 24.3257 27.87 25.3115 27.442C26.2974 27.014 27.1715 26.3648 27.866 25.5446C28.5605 24.7244 29.0569 23.7553 29.3166 22.7125C29.5763 21.6696 29.5924 20.5809 29.3636 19.5308C29.1348 18.4807 28.6673 17.4973 27.9973 16.657C27.3273 15.8167 26.4728 15.1419 25.5 14.685ZM12 5H16V13.5L14.3 12.225C14.2135 12.1601 14.1082 12.125 14 12.125C13.8918 12.125 13.7865 12.1601 13.7 12.225L12 13.5V5ZM3.5 24V5H11V14.5C11.0003 14.5923 11.0261 14.6828 11.0747 14.7613C11.1232 14.8399 11.1925 14.9035 11.275 14.945C11.358 14.9871 11.4512 15.0052 11.5439 14.9973C11.6367 14.9893 11.7254 14.9556 11.8 14.9L14 13.25L16.2 14.9C16.2865 14.9649 16.3918 15 16.5 15C16.5785 15.0014 16.656 14.9824 16.725 14.945C16.8075 14.9035 16.8768 14.8399 16.9253 14.7613C16.9739 14.6828 16.9997 14.5923 17 14.5V5H24.5V14.295C23.2043 13.9114 21.8254 13.911 20.5295 14.2939C19.2336 14.6768 18.0763 15.4265 17.1971 16.4526C16.318 17.4787 15.7546 18.7374 15.575 20.0766C15.3954 21.4159 15.6073 22.7785 16.185 24H3.5ZM22.5 27C21.3133 27 20.1533 26.6481 19.1666 25.9888C18.1799 25.3295 17.4108 24.3925 16.9567 23.2961C16.5026 22.1997 16.3838 20.9933 16.6153 19.8295C16.8468 18.6656 17.4182 17.5965 18.2574 16.7574C19.0965 15.9182 20.1656 15.3468 21.3295 15.1153C22.4933 14.8838 23.6997 15.0026 24.7961 15.4567C25.8925 15.9109 26.8295 16.6799 27.4888 17.6666C28.1481 18.6533 28.5 19.8133 28.5 21C28.5 22.5913 27.8679 24.1174 26.7426 25.2426C25.6174 26.3679 24.0913 27 22.5 27Z" fill="black"/>
<path d="M22.5 16.5C22.3674 16.5 22.2402 16.5527 22.1464 16.6464C22.0527 16.7402 22 16.8674 22 17V20.5H18C17.8674 20.5 17.7402 20.5527 17.6464 20.6464C17.5527 20.7402 17.5 20.8674 17.5 21C17.5 21.1326 17.5527 21.2598 17.6464 21.3536C17.7402 21.4473 17.8674 21.5 18 21.5H22.5C22.6326 21.5 22.7598 21.4473 22.8536 21.3536C22.9473 21.2598 23 21.1326 23 21V17C23 16.8674 22.9473 16.7402 22.8536 16.6464C22.7598 16.5527 22.6326 16.5 22.5 16.5Z" fill="black"/>
</svg>
