<svg width="32" height="32" viewBox="0 0 32 32" fill="none" xmlns="http://www.w3.org/2000/svg">
<path d="M20 9.33337H25.764C26.3093 9.33337 26.8 9.66537 27.0013 10.172L29.1427 15.524C29.268 15.8387 29.3333 16.1747 29.3333 16.5134V24.444C29.3333 25.18 28.736 25.7774 28 25.7774H25.5587" stroke="white" stroke-width="1.5" stroke-linecap="round" stroke-linejoin="round"/>
<path d="M21.3333 25.8934H10.8933" stroke="white" stroke-width="1.5" stroke-linecap="round" stroke-linejoin="round"/>
<path d="M29.3333 18.6667H24V13.3334H28.2667" stroke="white" stroke-width="1.5" stroke-linecap="round" stroke-linejoin="round"/>
<path d="M16.7414 6.66663H18.6667C19.4027 6.66663 20.0001 7.26396 20.0001 7.99996V20H2.66675" stroke="white" stroke-width="1.5" stroke-linecap="round" stroke-linejoin="round"/>
<path d="M24.9387 24.3946C25.764 25.2199 25.764 26.5573 24.9387 27.3813C24.1133 28.2066 22.776 28.2066 21.952 27.3813C21.1267 26.5559 21.1267 25.2186 21.952 24.3946C22.7773 23.5706 24.1147 23.5706 24.9387 24.3946" stroke="white" stroke-width="1.5" stroke-linecap="round" stroke-linejoin="round"/>
<path d="M10.2719 24.3946C11.0972 25.2199 11.0972 26.5573 10.2719 27.3813C9.44658 28.2066 8.10925 28.2066 7.28525 27.3813C6.46125 26.5559 6.45991 25.2186 7.28525 24.3946C8.11058 23.5706 9.44658 23.5706 10.2719 24.3946" stroke="white" stroke-width="1.5" stroke-linecap="round" stroke-linejoin="round"/>
<path d="M6.66675 25.888H4.00008C3.26408 25.888 2.66675 25.2906 2.66675 24.5546V7.99996C2.66675 7.26396 3.26408 6.66663 4.00008 6.66663H5.65075" stroke="white" stroke-width="1.5" stroke-linecap="round" stroke-linejoin="round"/>
<path d="M11.196 12.424C8.1333 12.424 5.65063 9.94138 5.65063 6.87871C5.65063 3.87871 8.2013 1.33071 11.2 1.33338C14.2613 1.33604 16.74 3.81738 16.74 6.87871C16.74 9.94004 14.2586 12.424 11.196 12.424" stroke="white" stroke-width="1.5"/>
<path d="M13.66 5.64661L10.5787 8.72794L8.73071 6.87861" stroke="white" stroke-width="1.5" stroke-linecap="round" stroke-linejoin="round"/>
</svg>
